<svg width="12" height="12" viewBox="0 0 12 12" fill="none" xmlns="http://www.w3.org/2000/svg">
<path d="M10.7257 1.28248C10.6563 1.21296 10.5739 1.1578 10.4831 1.12016C10.3924 1.08252 10.2951 1.06315 10.1969 1.06315C10.0987 1.06315 10.0014 1.08252 9.91069 1.12016C9.81996 1.1578 9.73754 1.21296 9.66816 1.28248L6.00066 4.94248L2.33316 1.27498C2.26372 1.20555 2.18129 1.15047 2.09056 1.11289C1.99984 1.07531 1.9026 1.05597 1.80441 1.05597C1.70621 1.05597 1.60897 1.07531 1.51825 1.11289C1.42753 1.15047 1.34509 1.20555 1.27566 1.27498C1.20622 1.34442 1.15114 1.42685 1.11356 1.51758C1.07598 1.6083 1.05664 1.70554 1.05664 1.80373C1.05664 1.90193 1.07598 1.99917 1.11356 2.08989C1.15114 2.18062 1.20622 2.26305 1.27566 2.33248L4.94316 5.99998L1.27566 9.66748C1.20622 9.73692 1.15114 9.81935 1.11356 9.91008C1.07598 10.0008 1.05664 10.098 1.05664 10.1962C1.05664 10.2944 1.07598 10.3917 1.11356 10.4824C1.15114 10.5731 1.20622 10.6555 1.27566 10.725C1.34509 10.7944 1.42753 10.8495 1.51825 10.8871C1.60897 10.9247 1.70621 10.944 1.80441 10.944C1.9026 10.944 1.99984 10.9247 2.09056 10.8871C2.18129 10.8495 2.26372 10.7944 2.33316 10.725L6.00066 7.05748L9.66816 10.725C9.73759 10.7944 9.82003 10.8495 9.91075 10.8871C10.0015 10.9247 10.0987 10.944 10.1969 10.944C10.2951 10.944 10.3923 10.9247 10.4831 10.8871C10.5738 10.8495 10.6562 10.7944 10.7257 10.725C10.7951 10.6555 10.8502 10.5731 10.8878 10.4824C10.9253 10.3917 10.9447 10.2944 10.9447 10.1962C10.9447 10.098 10.9253 10.0008 10.8878 9.91008C10.8502 9.81935 10.7951 9.73692 10.7257 9.66748L7.05816 5.99998L10.7257 2.33248C11.0107 2.04748 11.0107 1.56748 10.7257 1.28248Z" fill="white" stroke="white" stroke-width="0.5"/>
</svg>
