<svg width="24" height="20" viewBox="0 0 24 20" fill="none" xmlns="http://www.w3.org/2000/svg">
<path d="M22.3402 8.64296L22.3327 8.63968L2.31328 0.336245C2.1449 0.265768 1.96167 0.238127 1.77999 0.255797C1.59831 0.273466 1.42384 0.335893 1.27219 0.437495C1.11197 0.54248 0.980359 0.685652 0.889207 0.854128C0.798055 1.0226 0.750218 1.2111 0.75 1.40265V6.71312C0.750089 6.97499 0.841528 7.22862 1.00856 7.4303C1.17558 7.63199 1.40774 7.76908 1.665 7.81796L12.5836 9.83687C12.6265 9.84501 12.6652 9.86786 12.6931 9.90149C12.7209 9.93512 12.7362 9.97742 12.7362 10.0211C12.7362 10.0648 12.7209 10.1071 12.6931 10.1407C12.6652 10.1743 12.6265 10.1972 12.5836 10.2053L1.66547 12.2242C1.40828 12.273 1.17614 12.4099 1.00903 12.6114C0.841932 12.8129 0.750328 13.0663 0.75 13.3281V18.6395C0.749876 18.8224 0.795166 19.0025 0.881807 19.1636C0.968448 19.3247 1.09373 19.4618 1.24641 19.5625C1.43006 19.6845 1.6456 19.7497 1.86609 19.75C2.01938 19.7499 2.1711 19.7191 2.31234 19.6595L22.3313 11.4034L22.3402 11.3992C22.6096 11.2834 22.8392 11.0911 23.0006 10.8462C23.1619 10.6013 23.2479 10.3144 23.2479 10.0211C23.2479 9.72779 23.1619 9.44092 23.0006 9.19598C22.8392 8.95104 22.6096 8.75877 22.3402 8.64296Z" fill="#4E9C0B"/>
</svg>
